<?xml version="1.0" standalone="no"?><!DOCTYPE svg PUBLIC "-//W3C//DTD SVG 1.1//EN" "http://www.w3.org/Graphics/SVG/1.1/DTD/svg11.dtd"><svg t="1598577704967" class="icon" viewBox="0 0 1024 1024" version="1.1" xmlns="http://www.w3.org/2000/svg" p-id="10663" xmlns:xlink="http://www.w3.org/1999/xlink" width="200" height="200"><defs><style type="text/css"></style></defs><path d="M928 192H352c-9.6 0-19.2 3.2-22.4 9.6l-256 288c-9.6 12.8-9.6 32 0 41.6l256 288c6.4 6.4 16 9.6 22.4 9.6h576c19.2 0 32-12.8 32-32V224c0-19.2-12.8-32-32-32z m-32 576H364.8l-227.2-256 227.2-256H896v512z" fill="" p-id="10664" data-spm-anchor-id="a313x.7781069.0.i15"></path><path d="M489.6 662.4c6.4 6.4 16 9.6 22.4 9.6s16-3.2 22.4-9.6l105.6-105.6 105.6 105.6c6.4 6.4 16 9.6 22.4 9.6s16-3.2 22.4-9.6c12.8-12.8 12.8-32 0-44.8L684.8 512l105.6-105.6c12.8-12.8 12.8-32 0-44.8s-32-12.8-44.8 0L640 467.2l-105.6-105.6c-12.8-12.8-32-12.8-44.8 0s-12.8 32 0 44.8l105.6 105.6-105.6 105.6c-12.8 12.8-12.8 32 0 44.8z" fill="" p-id="10665" data-spm-anchor-id="a313x.7781069.0.i16" class=""></path></svg>
